<svg width="256" height="256" viewBox="0 0 256 256" fill="none" xmlns="http://www.w3.org/2000/svg">
<rect x="5" y="5" width="246" height="246" rx="123" fill="#0D231F"/>
<rect x="5" y="5" width="246" height="246" rx="123" stroke="#A2D060" stroke-width="10"/>
<path fill-rule="evenodd" clip-rule="evenodd" d="M121.306 79.8746C97.7489 90.2017 60.6302 106.349 51.5626 110.291C51.1331 110.477 50.6372 110.423 50.258 110.146C49.8788 109.871 49.6704 109.413 49.7117 108.942C49.8141 107.776 49.9417 106.336 50.0513 105.078C50.2113 103.25 51.3506 101.659 53.0218 100.931C62.3625 96.8546 93.9861 83.0562 118.398 72.3923C144.323 61.0657 168.854 50.3275 171.604 49.1903C178.648 46.2767 181.137 46.5085 188.431 54.8998C195.89 63.4831 191.712 66.5651 182.993 70.529C165.089 78.6668 152.597 83.4673 145.076 90.7703C136.747 98.8592 131.479 109.156 128.364 122.641C125.29 135.961 124.255 154.288 123.333 171.714C122.411 189.161 122.458 196.518 122.255 203.765C122.089 209.676 121.288 211.253 113.449 215.394C104.779 219.974 101.801 220.11 102.128 211.552C102.612 198.88 104.026 164.956 105.722 148.716C107.424 132.432 108.721 117.931 117.762 102.903C126.959 87.614 144.372 78.9964 156.577 73.3865C168.322 67.9884 174.233 65.2396 180.015 62.6374C181.963 61.761 183.219 60.9878 180.941 58.3875C178.666 55.7926 177.002 55.5535 172.046 57.7482C166.904 60.0244 145.091 69.4479 121.306 79.8746Z" fill="#A2D060"/>
</svg>
