<svg width="26" height="26" viewBox="0 0 26 26" fill="none" xmlns="http://www.w3.org/2000/svg">
<path d="M16.7295 3.2906C15.5717 2.84373 14.3163 2.59998 13.0001 2.59998C7.25572 2.59998 2.6001 7.2556 2.6001 13C2.6001 18.7443 7.25572 23.4 13.0001 23.4C13.7192 23.4 14.3001 22.819 14.3001 22.1C14.3001 21.3809 13.7192 20.8 13.0001 20.8C8.69385 20.8 5.2001 17.3062 5.2001 13C5.2001 8.69373 8.69385 5.19998 13.0001 5.19998C13.5729 5.19998 14.1295 5.26091 14.6657 5.37873L16.7295 3.2906ZM15.2182 16.7943C14.9988 17.0097 14.7551 17.1925 14.4951 17.3469C14.426 17.4565 14.3732 17.5784 14.3407 17.7125C14.162 18.4072 14.5804 19.1181 15.2751 19.2968C15.7951 19.4309 16.3395 19.5 16.9001 19.5C20.4913 19.5 23.4001 16.5912 23.4001 13C23.4001 11.6919 23.1604 10.4406 22.7176 9.29091L20.6295 11.379C20.7392 11.9031 20.8001 12.4434 20.8001 13C20.8001 15.1531 19.0532 16.9 16.9001 16.9C16.5629 16.9 16.2338 16.8553 15.9251 16.7781C15.6854 16.7172 15.4417 16.7253 15.2182 16.7943ZM21.8523 3.24998C21.0885 2.48623 19.8535 2.49029 19.0938 3.24998L17.4851 4.86279L21.1129 8.4906L22.7298 6.91029C23.5057 6.1506 23.5098 4.90341 22.746 4.13966L21.8523 3.24998ZM10.7454 11.6106C10.461 11.895 10.2457 12.2444 10.1198 12.6262L9.15291 15.5228C9.0351 15.8722 9.12854 16.2581 9.38854 16.5222C9.64854 16.7862 10.0345 16.8756 10.3879 16.7578L13.2926 15.7869C13.6663 15.6609 14.0076 15.4537 14.2879 15.1775L20.1826 9.40466L16.5629 5.78498L10.7454 11.6106Z" fill="#A2D060"/>
</svg>
