<svg width="27" height="26" viewBox="0 0 27 26" fill="none" xmlns="http://www.w3.org/2000/svg">
<path d="M13.5239 25C6.78358 25 1.5481 19.3774 1.75133 12.7048C1.88681 8.87258 3.84165 5.34032 7.38842 3.00806C7.40294 3.00806 7.48036 2.97903 7.44165 3.04677C7.161 3.3129 2.05617 9.32742 6.75939 14.0016C9.16907 16.3968 11.1142 14.1226 11.1142 14.1226C12.9771 11.6984 11.0852 8.03065 11.0852 8.03065C10.6013 6.82581 8.87391 6.09032 8.87391 6.09032L10.2675 4.55161C11.4481 5.05968 12.3578 6.42419 12.3578 6.42419C12.3965 4.99194 11.2981 3.45323 11.2981 3.45323L13.4562 1L15.5997 3.42419C14.6078 4.81774 14.54 6.45323 14.54 6.45323C15.2078 5.34032 16.6449 4.55161 16.6449 4.55161L18.0239 6.09032C16.6981 6.52097 15.8271 8.02097 15.8271 8.02097C15.0626 9.4 14.5158 12.3468 15.8562 14.1806C17.4239 16.3387 20.0997 14.0452 20.0997 14.0452C25.0691 9.59839 19.5916 3.15806 19.5916 3.15806C19.2965 2.89194 19.6304 3.02258 19.6304 3.02258C22.0546 4.78871 25.1755 7.10645 25.2529 12.9323C25.3497 19.9774 20.4191 25 13.5239 25Z" fill="#A2D060"/>
</svg>
