<svg width="27" height="26" viewBox="0 0 27 26" fill="none" xmlns="http://www.w3.org/2000/svg">
<path d="M7.10527 2.59998C6.56496 2.59998 6.13027 3.03466 6.13027 3.57498C6.13027 5.15529 7.0809 5.9881 7.71871 6.54466L7.7634 6.58529C8.42559 7.16216 8.73027 7.47091 8.73027 8.12498C8.73027 8.66529 9.16496 9.09998 9.70527 9.09998C10.2456 9.09998 10.6803 8.66529 10.6803 8.12498C10.6803 6.54466 9.72965 5.71185 9.09184 5.15529L9.04715 5.11466C8.38496 4.53779 8.08027 4.22904 8.08027 3.57498C8.08027 3.03466 7.64559 2.59998 7.10527 2.59998ZM4.83027 10.4C4.11121 10.4 3.53027 10.9809 3.53027 11.7V19.5C3.53027 21.6531 5.27715 23.4 7.43027 23.4H15.2303C17.3834 23.4 19.1303 21.6531 19.1303 19.5H19.7803C22.295 19.5 24.3303 17.4647 24.3303 14.95C24.3303 12.4353 22.295 10.4 19.7803 10.4H17.8303H4.83027ZM19.1303 13H19.7803C20.8568 13 21.7303 13.8734 21.7303 14.95C21.7303 16.0265 20.8568 16.9 19.7803 16.9H19.1303V13ZM12.6303 3.57498C12.6303 3.03466 12.1956 2.59998 11.6553 2.59998C11.115 2.59998 10.6803 3.03466 10.6803 3.57498C10.6803 5.15529 11.6309 5.9881 12.2687 6.54466L12.3134 6.58529C12.9756 7.16216 13.2803 7.47091 13.2803 8.12498C13.2803 8.66529 13.715 9.09998 14.2553 9.09998C14.7956 9.09998 15.2303 8.66529 15.2303 8.12498C15.2303 6.54466 14.2796 5.71185 13.6418 5.15529L13.5971 5.11466C12.935 4.53779 12.6303 4.22904 12.6303 3.57498Z" fill="#A2D060"/>
</svg>
