<svg width="27" height="26" viewBox="0 0 27 26" fill="none" xmlns="http://www.w3.org/2000/svg">
<path d="M8.50596 2.6001C6.35283 2.6001 4.60596 4.34697 4.60596 6.5001V19.5001C4.60596 21.6532 6.35283 23.4001 8.50596 23.4001H20.206H21.506C22.225 23.4001 22.806 22.8192 22.806 22.1001C22.806 21.381 22.225 20.8001 21.506 20.8001V18.2001C22.225 18.2001 22.806 17.6192 22.806 16.9001V3.9001C22.806 3.18104 22.225 2.6001 21.506 2.6001H20.206H8.50596ZM8.50596 18.2001H18.906V20.8001H8.50596C7.78689 20.8001 7.20596 20.2192 7.20596 19.5001C7.20596 18.781 7.78689 18.2001 8.50596 18.2001ZM9.80596 8.4501C9.80596 8.0926 10.0985 7.8001 10.456 7.8001H18.256C18.6135 7.8001 18.906 8.0926 18.906 8.4501C18.906 8.8076 18.6135 9.1001 18.256 9.1001H10.456C10.0985 9.1001 9.80596 8.8076 9.80596 8.4501ZM10.456 10.4001H18.256C18.6135 10.4001 18.906 10.6926 18.906 11.0501C18.906 11.4076 18.6135 11.7001 18.256 11.7001H10.456C10.0985 11.7001 9.80596 11.4076 9.80596 11.0501C9.80596 10.6926 10.0985 10.4001 10.456 10.4001Z" fill="#A2D060"/>
</svg>
