<svg width="26" height="26" viewBox="0 0 26 26" fill="none" xmlns="http://www.w3.org/2000/svg">
<path fill-rule="evenodd" clip-rule="evenodd" d="M22.5331 8.11165C22.5483 8.32484 22.5483 8.53807 22.5483 8.75126C22.5483 15.2538 17.5991 22.7462 8.55333 22.7462C5.7665 22.7462 3.17768 21.9391 1 20.5381C1.39595 20.5838 1.77663 20.599 2.18782 20.599C4.48728 20.599 6.60407 19.8224 8.29444 18.4975C6.13199 18.4518 4.31979 17.0356 3.69542 15.0863C4.00001 15.132 4.30456 15.1624 4.62439 15.1624C5.066 15.1624 5.50766 15.1015 5.9188 14.9949C3.66499 14.538 1.97458 12.5584 1.97458 10.1675V10.1066C2.62938 10.4721 3.39087 10.7005 4.19792 10.7309C2.87304 9.84767 2.00505 8.34007 2.00505 6.63447C2.00505 5.72078 2.24866 4.88321 2.67508 4.15224C5.09642 7.13702 8.73605 9.08623 12.8172 9.29946C12.7411 8.93398 12.6954 8.55331 12.6954 8.17259C12.6954 5.46189 14.8883 3.25378 17.6142 3.25378C19.0304 3.25378 20.3096 3.84769 21.2081 4.80709C22.3198 4.5939 23.3858 4.18271 24.33 3.61927C23.9644 4.76143 23.1878 5.72082 22.1675 6.32992C23.1574 6.22337 24.1168 5.9492 25 5.56853C24.3301 6.54311 23.4924 7.4111 22.5331 8.11165ZM17.36 5.01784C17.5553 4.82258 17.8719 4.8226 18.0671 5.01787L18.6241 5.57489L19.1812 5.01784C19.3765 4.82258 19.6931 4.8226 19.8883 5.01787C20.0836 5.21314 20.0835 5.52973 19.8883 5.72498L19.3312 6.28203L19.8883 6.83923C20.0836 7.0345 20.0835 7.35108 19.8883 7.54634C19.693 7.74159 19.3764 7.74157 19.1812 7.5463L18.624 6.9891L18.0669 7.54615C17.8716 7.74141 17.5551 7.74139 17.3598 7.54612C17.1646 7.35085 17.1646 7.03426 17.3598 6.83901L17.917 6.28196L17.36 5.72494C17.1647 5.52967 17.1648 5.21309 17.36 5.01784Z" fill="#A2D060"/>
</svg>
