<svg width="26" height="27" viewBox="0 0 26 27" fill="none" xmlns="http://www.w3.org/2000/svg">
<path d="M5.5 6C5.5 4.62109 6.62109 3.5 8 3.5H16.8555C17.5195 3.5 18.1562 3.76172 18.625 4.23047L19.7695 5.375C20.2383 5.84375 20.5 6.48047 20.5 7.14453V11H21.75C22.4414 11 23 11.5586 23 12.25V13.5C23 14.1914 22.4414 14.75 21.75 14.75V21C21.75 22.3789 20.6289 23.5 19.25 23.5H6.75C5.37109 23.5 4.25 22.3789 4.25 21V14.75C3.55859 14.75 3 14.1914 3 13.5V12.25C3 11.5586 3.55859 11 4.25 11H5.5V6ZM18 8.5H16.75C16.0586 8.5 15.5 7.94141 15.5 7.25V6H8V11H8.73047C9.0625 11 9.37891 11.1328 9.61328 11.3672L10.1328 11.8867C10.3672 12.1211 10.6836 12.2539 11.0156 12.2539H14.9805C15.3125 12.2539 15.6289 12.1211 15.8633 11.8867L16.3828 11.3672C16.6172 11.1328 16.9336 11 17.2656 11H17.9961V8.5H18ZM9.25 14.75C9.08424 14.75 8.92527 14.8158 8.80806 14.9331C8.69085 15.0503 8.625 15.2092 8.625 15.375C8.625 15.5408 8.69085 15.6997 8.80806 15.8169C8.92527 15.9342 9.08424 16 9.25 16C9.41576 16 9.57473 15.9342 9.69194 15.8169C9.80915 15.6997 9.875 15.5408 9.875 15.375C9.875 15.2092 9.80915 15.0503 9.69194 14.9331C9.57473 14.8158 9.41576 14.75 9.25 14.75ZM11.75 14.75C11.5842 14.75 11.4253 14.8158 11.3081 14.9331C11.1908 15.0503 11.125 15.2092 11.125 15.375C11.125 15.5408 11.1908 15.6997 11.3081 15.8169C11.4253 15.9342 11.5842 16 11.75 16C11.9158 16 12.0747 15.9342 12.1919 15.8169C12.3092 15.6997 12.375 15.5408 12.375 15.375C12.375 15.2092 12.3092 15.0503 12.1919 14.9331C12.0747 14.8158 11.9158 14.75 11.75 14.75ZM14.25 14.75C14.0842 14.75 13.9253 14.8158 13.8081 14.9331C13.6908 15.0503 13.625 15.2092 13.625 15.375C13.625 15.5408 13.6908 15.6997 13.8081 15.8169C13.9253 15.9342 14.0842 16 14.25 16C14.4158 16 14.5747 15.9342 14.6919 15.8169C14.8092 15.6997 14.875 15.5408 14.875 15.375C14.875 15.2092 14.8092 15.0503 14.6919 14.9331C14.5747 14.8158 14.4158 14.75 14.25 14.75ZM16.75 14.75C16.5842 14.75 16.4253 14.8158 16.3081 14.9331C16.1908 15.0503 16.125 15.2092 16.125 15.375C16.125 15.5408 16.1908 15.6997 16.3081 15.8169C16.4253 15.9342 16.5842 16 16.75 16C16.9158 16 17.0747 15.9342 17.1919 15.8169C17.3092 15.6997 17.375 15.5408 17.375 15.375C17.375 15.2092 17.3092 15.0503 17.1919 14.9331C17.0747 14.8158 16.9158 14.75 16.75 14.75ZM19.25 14.75C19.0842 14.75 18.9253 14.8158 18.8081 14.9331C18.6908 15.0503 18.625 15.2092 18.625 15.375C18.625 15.5408 18.6908 15.6997 18.8081 15.8169C18.9253 15.9342 19.0842 16 19.25 16C19.4158 16 19.5747 15.9342 19.6919 15.8169C19.8092 15.6997 19.875 15.5408 19.875 15.375C19.875 15.2092 19.8092 15.0503 19.6919 14.9331C19.5747 14.8158 19.4158 14.75 19.25 14.75ZM6.75 14.75C6.58424 14.75 6.42527 14.8158 6.30806 14.9331C6.19085 15.0503 6.125 15.2092 6.125 15.375C6.125 15.5408 6.19085 15.6997 6.30806 15.8169C6.42527 15.9342 6.58424 16 6.75 16C6.91576 16 7.07473 15.9342 7.19194 15.8169C7.30915 15.6997 7.375 15.5408 7.375 15.375C7.375 15.2092 7.30915 15.0503 7.19194 14.9331C7.07473 14.8158 6.91576 14.75 6.75 14.75ZM9.25 19.75C8.90625 19.75 8.625 20.0312 8.625 20.375C8.625 20.7188 8.90625 21 9.25 21H16.75C17.0938 21 17.375 20.7188 17.375 20.375C17.375 20.0312 17.0938 19.75 16.75 19.75H9.25ZM8 18.5C8.16576 18.5 8.32473 18.4342 8.44194 18.3169C8.55915 18.1997 8.625 18.0408 8.625 17.875C8.625 17.7092 8.55915 17.5503 8.44194 17.4331C8.32473 17.3158 8.16576 17.25 8 17.25C7.83424 17.25 7.67527 17.3158 7.55806 17.4331C7.44085 17.5503 7.375 17.7092 7.375 17.875C7.375 18.0408 7.44085 18.1997 7.55806 18.3169C7.67527 18.4342 7.83424 18.5 8 18.5ZM10.5 18.5C10.6658 18.5 10.8247 18.4342 10.9419 18.3169C11.0592 18.1997 11.125 18.0408 11.125 17.875C11.125 17.7092 11.0592 17.5503 10.9419 17.4331C10.8247 17.3158 10.6658 17.25 10.5 17.25C10.3342 17.25 10.1753 17.3158 10.0581 17.4331C9.94085 17.5503 9.875 17.7092 9.875 17.875C9.875 18.0408 9.94085 18.1997 10.0581 18.3169C10.1753 18.4342 10.3342 18.5 10.5 18.5ZM13.625 17.875C13.625 17.7092 13.5592 17.5503 13.4419 17.4331C13.3247 17.3158 13.1658 17.25 13 17.25C12.8342 17.25 12.6753 17.3158 12.5581 17.4331C12.4408 17.5503 12.375 17.7092 12.375 17.875C12.375 18.0408 12.4408 18.1997 12.5581 18.3169C12.6753 18.4342 12.8342 18.5 13 18.5C13.1658 18.5 13.3247 18.4342 13.4419 18.3169C13.5592 18.1997 13.625 18.0408 13.625 17.875ZM15.5 18.5C15.6658 18.5 15.8247 18.4342 15.9419 18.3169C16.0592 18.1997 16.125 18.0408 16.125 17.875C16.125 17.7092 16.0592 17.5503 15.9419 17.4331C15.8247 17.3158 15.6658 17.25 15.5 17.25C15.3342 17.25 15.1753 17.3158 15.0581 17.4331C14.9408 17.5503 14.875 17.7092 14.875 17.875C14.875 18.0408 14.9408 18.1997 15.0581 18.3169C15.1753 18.4342 15.3342 18.5 15.5 18.5ZM18.625 17.875C18.625 17.7092 18.5592 17.5503 18.4419 17.4331C18.3247 17.3158 18.1658 17.25 18 17.25C17.8342 17.25 17.6753 17.3158 17.5581 17.4331C17.4408 17.5503 17.375 17.7092 17.375 17.875C17.375 18.0408 17.4408 18.1997 17.5581 18.3169C17.6753 18.4342 17.8342 18.5 18 18.5C18.1658 18.5 18.3247 18.4342 18.4419 18.3169C18.5592 18.1997 18.625 18.0408 18.625 17.875Z" fill="#A2D060"/>
</svg>
