<svg width="27" height="26" viewBox="0 0 27 26" fill="none" xmlns="http://www.w3.org/2000/svg">
<path d="M23.3266 9.23853L14.1859 3.14478C13.8739 2.95278 13.541 2.95103 13.2261 3.14478L4.08551 9.23853C3.85113 9.39474 3.70605 9.6738 3.70605 9.95278V16.0465C3.70605 16.3255 3.85113 16.6045 4.08555 16.7608L13.2262 22.8554C13.5382 23.0474 13.8711 23.0492 14.186 22.8554L23.3266 16.7608C23.561 16.6046 23.7061 16.3255 23.7061 16.0465V9.95278C23.7061 9.6738 23.561 9.39474 23.3266 9.23853ZM14.5654 5.46614L21.2954 9.95278L18.2931 11.9617L14.5654 9.47286V5.46614ZM12.8467 5.46614V9.47286L9.11898 11.9617L6.11676 9.95278L12.8467 5.46614ZM5.4248 11.5599L7.57883 12.9997L5.4248 14.4394V11.5599ZM12.8467 20.5332L6.11676 16.0465L9.11898 14.0376L12.8467 16.5265V20.5332ZM13.7061 15.0309L10.6703 12.9997L13.7061 10.9684L16.7418 12.9997L13.7061 15.0309ZM14.5654 20.5332V16.5265L18.2931 14.0376L21.2954 16.0465L14.5654 20.5332ZM21.9873 14.4394L19.8333 12.9997L21.9873 11.5599V14.4394Z" fill="#A2D060"/>
</svg>
