<svg width="27" height="27" viewBox="0 0 27 27" fill="none" xmlns="http://www.w3.org/2000/svg">
<path d="M9.15729 6.07542L8.73478 7.34292H5.7001C4.26604 7.34292 3.1001 8.50886 3.1001 9.94292V20.3429C3.1001 21.777 4.26604 22.9429 5.7001 22.9429H21.3001C22.7342 22.9429 23.9001 21.777 23.9001 20.3429V9.94292C23.9001 8.50886 22.7342 7.34292 21.3001 7.34292H18.2654L17.8429 6.07542C17.5788 5.27917 16.8354 4.74292 15.9945 4.74292H11.0057C10.1648 4.74292 9.42135 5.27917 9.15729 6.07542ZM13.5001 11.2429C14.5344 11.2429 15.5264 11.6538 16.2578 12.3852C16.9892 13.1166 17.4001 14.1086 17.4001 15.1429C17.4001 16.1773 16.9892 17.1692 16.2578 17.9006C15.5264 18.632 14.5344 19.0429 13.5001 19.0429C12.4658 19.0429 11.4738 18.632 10.7424 17.9006C10.011 17.1692 9.6001 16.1773 9.6001 15.1429C9.6001 14.1086 10.011 13.1166 10.7424 12.3852C11.4738 11.6538 12.4658 11.2429 13.5001 11.2429Z" fill="#A2D060"/>
</svg>
