<svg width="534" height="534" viewBox="0 0 534 534" fill="none" xmlns="http://www.w3.org/2000/svg">
<path d="M53.8991 197.499L53.8993 197.499C81.7457 185.393 195.737 135.805 268.08 104.091C311.309 85.1401 352.423 67.2667 382.055 54.3848C402.487 45.5023 417.46 38.993 423.903 36.1402C431.514 32.7698 436.492 31.3215 440.405 31.647C444.266 31.9682 447.18 34.0274 450.641 37.9756C452.373 39.9518 453.401 41.5457 453.9 42.8539C454.393 44.1484 454.361 45.1393 454.005 45.958C453.642 46.795 452.908 47.5274 451.851 48.2293C450.795 48.9302 449.466 49.5689 447.97 50.2417C435.588 55.8135 423.015 61.6047 404.314 70.2178C396.191 73.9594 386.911 78.2334 375.988 83.2533C338.519 100.476 284.902 126.994 256.569 174.094C229.514 219.065 224.991 262.509 219.96 310.826C219.816 312.211 219.671 313.6 219.526 314.992C214.314 364.883 209.97 469.081 208.486 507.991C208.235 514.577 208.614 519.552 209.775 523.076C210.945 526.628 212.931 528.759 215.882 529.524C218.776 530.274 222.503 529.682 227.111 528.068C231.734 526.449 237.325 523.771 243.986 520.253L243.753 519.811L243.986 520.253C256.012 513.9 262.749 509.462 266.514 504.286C270.301 499.081 271.039 493.189 271.293 484.112C271.447 478.633 271.554 473.135 271.67 467.162C272.026 448.858 272.47 426.085 274.604 385.695C277.436 332.168 280.613 275.934 290.044 235.079C299.591 193.736 315.733 162.211 341.227 137.452C352.718 126.293 368.027 117.028 387.364 107.422C400.373 100.96 415.179 94.3548 431.849 86.9182C439.964 83.2982 448.521 79.4812 457.527 75.3876C464.224 72.3429 470.076 69.4559 474.72 66.4228C479.36 63.3921 482.842 60.186 484.745 56.4823C488.593 48.9955 485.862 39.801 474.396 26.6076C463.204 13.7314 455.609 6.99981 448.04 4.67186C440.437 2.33323 432.964 4.46774 422.152 8.93978C415.437 11.7171 366.477 33.1157 306.702 59.2412C291.26 65.9907 275.095 73.0556 258.75 80.1965C190.701 109.923 104.404 147.58 67.6011 163.639C63.8591 165.272 60.6288 166.682 57.9813 167.837C52.6796 170.147 49.0677 175.195 48.5607 180.987L48.5607 180.987C48.3396 183.526 48.0947 186.305 47.8635 188.928C47.7427 190.298 47.6257 191.625 47.5178 192.854C47.3757 194.473 48.0918 196.05 49.3985 196.999C50.7065 197.955 52.4177 198.142 53.8991 197.499Z" fill="#B0D16A" stroke="#040807"/>
</svg>
